<?xml version="1.0" encoding="UTF-8"?>
<!-- Generator: Adobe Illustrator 21.0.0, SVG Export Plug-In . SVG Version: 6.00 Build 0)  -->
<svg xmlns="http://www.w3.org/2000/svg" xmlns:xlink="http://www.w3.org/1999/xlink" xmlns:dc="http://purl.org/dc/elements/1.1/" xmlns:cc="http://creativecommons.org/ns#" xmlns:rdf="http://www.w3.org/1999/02/22-rdf-syntax-ns#" version="1.1" id="DESIGNS" x="0px" y="0px" width="32px" height="32px" viewBox="0 0 32 32" style="enable-background:new 0 0 32 32;" xml:space="preserve">
<title property="dc:title">to plot</title><desc property="dc:description">An icon for "plot" from the Dashing series on to [icon]. Downloaded from http://www.toicon.com/icons/dashing_plot on 2019-09-10. Licensed CC-BY, see http://toicon.com/license/ for details.</desc>
<path class="dashing_een" d="M30,29.5c0,0.276-0.224,0.5-0.5,0.5h-27C2.224,30,2,29.776,2,29.5v-27C2,2.224,2.224,2,2.5,2  S3,2.224,3,2.5V29h26.5C29.776,29,30,29.224,30,29.5z M21.428,10.572c-0.195-0.195-0.512-0.195-0.707,0l-1.414,1.414  c-0.195,0.195-0.195,0.512,0,0.707s0.512,0.195,0.707,0l1.414-1.414C21.624,11.083,21.624,10.767,21.428,10.572z M24.964,7.036  c-0.195-0.195-0.512-0.195-0.707,0L22.843,8.45c-0.195,0.195-0.195,0.512,0,0.707s0.512,0.195,0.707,0l1.414-1.414  C25.159,7.548,25.159,7.231,24.964,7.036z M28.499,3.501c-0.195-0.195-0.512-0.195-0.707,0l-1.414,1.414  c-0.195,0.195-0.195,0.512,0,0.707c0.195,0.195,0.512,0.195,0.707,0l1.414-1.414C28.695,4.012,28.695,3.696,28.499,3.501z   M17.893,14.107c-0.195-0.195-0.512-0.195-0.707,0l-1.414,1.414c-0.195,0.195-0.195,0.512,0,0.707s0.512,0.195,0.707,0l1.414-1.414  C18.088,14.619,18.088,14.303,17.893,14.107z M14.357,17.643c-0.195-0.195-0.512-0.195-0.707,0l-1.414,1.414  c-0.195,0.195-0.195,0.512,0,0.707s0.512,0.195,0.707,0l1.414-1.414C14.553,18.154,14.553,17.838,14.357,17.643z M10.822,21.178  c-0.195-0.195-0.512-0.195-0.707,0l-1.414,1.414c-0.195,0.195-0.195,0.512,0,0.707s0.512,0.195,0.707,0l1.414-1.414  C11.017,21.69,11.017,21.374,10.822,21.178z M7.286,24.714c-0.195-0.195-0.512-0.195-0.707,0l-1.414,1.414  c-0.195,0.195-0.195,0.512,0,0.707c0.195,0.195,0.512,0.195,0.707,0l1.414-1.414C7.482,25.225,7.482,24.909,7.286,24.714z" style="fill: #0B1719;"/>
<metadata><work rdf:about=""><format>image/svg+xml</format><type rdf:resource="http://purl.org/dc/dcmitype/StillImage"/><license rdf:resource="http://creativecommons.org/licenses/by/4.0/"/><attributionname>Katinka Berghuis</attributionname><attributionurl>http://www.toicon.com/icons/dashing_plot</attributionurl></work></metadata></svg>
