<?xml version="1.0" encoding="UTF-8"?>
<!-- Generator: Adobe Illustrator 22.0.1, SVG Export Plug-In . SVG Version: 6.00 Build 0)  -->
<svg xmlns="http://www.w3.org/2000/svg" xmlns:xlink="http://www.w3.org/1999/xlink" xmlns:dc="http://purl.org/dc/elements/1.1/" xmlns:cc="http://creativecommons.org/ns#" xmlns:rdf="http://www.w3.org/1999/02/22-rdf-syntax-ns#" version="1.1" id="designs" x="0px" y="0px" width="32px" height="32px" viewBox="0 0 32 32" style="enable-background:new 0 0 32 32;" xml:space="preserve">
<title property="dc:title">to listen</title><desc property="dc:description">An icon for "listen" from the Science and Fiction series on to [icon]. Downloaded from http://www.toicon.com/icons/science-and-fiction_listen on 2019-09-10. Licensed CC-BY, see http://toicon.com/license/ for details.</desc>
<path class="scienceandfiction_twee" d="M13.5,4C13.776,4,14,4.224,14,4.5S13.776,5,13.5,5S13,4.776,13,4.5S13.224,4,13.5,4z   M13.5,3C12.672,3,12,3.672,12,4.5S12.672,6,13.5,6S15,5.328,15,4.5S14.328,3,13.5,3L13.5,3z M27.5,6C27.776,6,28,6.224,28,6.5  S27.776,7,27.5,7S27,6.776,27,6.5S27.224,6,27.5,6z M27.5,5C26.672,5,26,5.672,26,6.5S26.672,8,27.5,8S29,7.328,29,6.5  S28.328,5,27.5,5L27.5,5z M26,10v1h-1v-1H26L26,10z M23,3v1h-1V3H23L23,3z M23,8v1h-1V8H23L23,8z M21,5v1h-1V5H21L21,5z M19,2v1h-1  V2H19L19,2z M9,3v1H8V3H9L9,3z M28,13v1h-1v-1H28L28,13z M11,6v1h-1V6H11L11,6z M25,16v1h-1v-1H25L25,16z M29,18v1h-1v-1H29L29,18z" style="fill: #CC2954;"/>
<path class="scienceandfiction_een" d="M16,19v-6.793l0.043-0.043l0.457,0.457l2.121-2.121L16.5,8.379L14.379,10.5l0.957,0.957  l-3.439,3.439L6.49,9.49C4.95,11.03,4,13.16,4,15.5c0,2.198,0.844,4.197,2.217,5.707L4.045,26H2v4h14v-4h-2.121l-0.893-2.025  c2.147-0.122,4.092-1.033,5.524-2.465L16,19z M4,29H3v-2h1V29z M14,27h1v2h-1V27z M16.5,9.793l0.707,0.707L16.5,11.207L15.793,10.5  L16.5,9.793z M15,13.207V18l-2.396-2.396L15,13.207z M6.978,21.951c1.334,1.144,3.024,1.878,4.882,2.017L12.78,26H5.143  L6.978,21.951z M13,27v2H5v-2H13z M12.5,23C8.365,23,5,19.635,5,15.5c0-1.666,0.54-3.249,1.536-4.549l10.513,10.513  C15.749,22.46,14.166,23,12.5,23z" style="fill: #2B4099;"/>
<metadata><work rdf:about=""><format>image/svg+xml</format><type rdf:resource="http://purl.org/dc/dcmitype/StillImage"/><license rdf:resource="http://creativecommons.org/licenses/by/4.0/"/><attributionname>Kamila Piątkowska</attributionname><attributionurl>http://www.toicon.com/icons/science-and-fiction_listen</attributionurl></work></metadata></svg>
