<?xml version="1.0" encoding="UTF-8"?>
<!-- Generator: Adobe Illustrator 21.1.0, SVG Export Plug-In . SVG Version: 6.00 Build 0)  -->
<svg xmlns="http://www.w3.org/2000/svg" xmlns:xlink="http://www.w3.org/1999/xlink" xmlns:dc="http://purl.org/dc/elements/1.1/" xmlns:cc="http://creativecommons.org/ns#" xmlns:rdf="http://www.w3.org/1999/02/22-rdf-syntax-ns#" version="1.1" id="designs" x="0px" y="0px" width="32px" height="32px" viewBox="0 0 32 32" style="enable-background:new 0 0 32 32;" xml:space="preserve">
<title property="dc:title">to plot</title><desc property="dc:description">An icon for "plot" from the Sketchy series on to [icon]. Downloaded from http://www.toicon.com/icons/sketchy_plot by 140.116.24.67 on 2019-09-10. Licensed CC-BY, see http://toicon.com/license/ for details.</desc>
<path class="sketchy_een" d="M2.458,25.769c0.01,0.013,0.02,0.023,0.03,0.035c0.036,0.046,0.07,0.094,0.106,0.14  C2.549,25.886,2.503,25.828,2.458,25.769z M29.998,7.819c-0.016,0.248-0.043,0.501-0.111,0.741c-0.09,0.31-0.232,0.571-0.413,0.833  c-0.187,0.269-0.369,0.491-0.636,0.681c-0.142,0.101-0.296,0.193-0.454,0.267c-0.361,0.172-0.731,0.316-1.131,0.355  c-0.189,0.02-0.384,0.033-0.575,0.033c-0.071,0-0.14-0.017-0.211-0.022c-0.329,0.657-0.657,1.316-0.992,1.971  c-0.292,0.567-0.594,1.13-0.845,1.714c-0.201,0.469-0.413,0.931-0.637,1.389c-0.22,0.455-0.461,0.901-0.661,1.365  c-0.048,0.113-0.097,0.225-0.133,0.341c-0.012,0.039-0.038,0.068-0.055,0.104c0.04,0.037,0.082,0.069,0.122,0.107  c0.294,0.285,0.484,0.671,0.622,1.053c0.049,0.135,0.078,0.277,0.113,0.415c0.051,0.205,0.092,0.417,0.097,0.63  c0.016,0.458-0.06,0.94-0.306,1.336c-0.101,0.164-0.201,0.332-0.314,0.486c-0.17,0.234-0.365,0.441-0.583,0.628  c-0.392,0.333-0.872,0.56-1.39,0.581c-0.281,0.01-0.556,0.008-0.835-0.045c-0.25-0.049-0.501-0.129-0.741-0.214  c-0.248-0.09-0.413-0.215-0.618-0.382c-0.082-0.068-0.162-0.136-0.232-0.216c-0.232-0.265-0.431-0.536-0.562-0.862  c-0.08-0.197-0.096-0.421-0.117-0.632c-0.018-0.156-0.019-0.31-0.004-0.466c0.025-0.265,0.051-0.541,0.131-0.797  c-0.02-0.016-0.041-0.031-0.061-0.046c0.004,0.004,0.009,0.007,0.013,0.011c-0.045-0.035-0.089-0.069-0.134-0.104  c-0.316-0.234-0.657-0.44-0.988-0.647c-0.439-0.275-0.885-0.538-1.326-0.807c-0.521-0.318-1.035-0.645-1.581-0.915  c-0.475-0.234-0.935-0.495-1.396-0.754c-0.069,0.073-0.122,0.157-0.2,0.223c-0.162,0.138-0.324,0.273-0.519,0.361  c-0.072,0.033-0.144,0.07-0.216,0.105c-0.162,0.08-0.331,0.179-0.513,0.203c-0.15,0.021-0.296,0.043-0.448,0.049  c-0.361,0.011-0.74-0.03-1.089-0.147c-0.245,0.381-0.484,0.765-0.735,1.141c-0.314,0.476-0.634,0.94-0.889,1.451  c-0.109,0.217-0.195,0.441-0.308,0.653c-0.131,0.246-0.259,0.493-0.382,0.745c-0.149,0.304-0.305,0.609-0.446,0.919  c-0.001,0.004-0.003,0.009-0.004,0.013c-0.013,0.039-0.044,0.066-0.061,0.103c0.138,0.157,0.264,0.324,0.374,0.508  c0.189,0.316,0.363,0.669,0.443,1.026c0.111,0.487,0.123,1.051,0.019,1.544c-0.021,0.098-0.051,0.195-0.086,0.289  c-0.025,0.074-0.055,0.146-0.084,0.216c-0.055,0.138-0.115,0.318-0.207,0.443c-0.123,0.166-0.252,0.332-0.39,0.484  c-0.156,0.172-0.339,0.353-0.55,0.45c-0.22,0.103-0.443,0.226-0.679,0.283c-0.236,0.059-0.48,0.094-0.718,0.125  c-0.152,0.02-0.304-0.01-0.454-0.027c-0.271-0.035-0.542-0.058-0.799-0.15c-0.292-0.101-0.612-0.224-0.868-0.406  c-0.306-0.217-0.528-0.458-0.757-0.749c-0.055-0.07-0.113-0.139-0.161-0.213c-0.094-0.146-0.16-0.304-0.216-0.468  c-0.029-0.084-0.057-0.168-0.07-0.256c-0.041-0.261-0.047-0.499-0.035-0.76c0.016-0.318,0.043-0.636,0.101-0.948  c0.051-0.261,0.187-0.511,0.308-0.745c0.082-0.158,0.152-0.326,0.257-0.47c0.103-0.142,0.215-0.302,0.347-0.421  c0.103-0.096,0.216-0.177,0.328-0.263c0.213-0.164,0.411-0.287,0.667-0.384c0.158-0.061,0.326-0.099,0.493-0.129  c0.257-0.046,0.513-0.09,0.774-0.09c0.069,0,0.139,0.003,0.209,0.01c0.151,0.015,0.284,0.045,0.405,0.114  c0.013-0.021,0.028-0.04,0.04-0.061c0.129-0.224,0.253-0.45,0.382-0.675c0.269-0.474,0.513-0.961,0.784-1.433  c0.142-0.248,0.279-0.495,0.425-0.741c0.142-0.238,0.298-0.47,0.443-0.706c0.277-0.452,0.523-0.919,0.795-1.372  c-0.11-0.144-0.212-0.289-0.284-0.457c-0.064-0.15-0.123-0.283-0.156-0.439c-0.031-0.146-0.055-0.294-0.08-0.443  c-0.031-0.187-0.07-0.386-0.058-0.579c0.006-0.092,0.012-0.183,0.018-0.273c0.025-0.415,0.06-0.833,0.263-1.205  c0.154-0.279,0.353-0.569,0.587-0.784c0.218-0.201,0.47-0.386,0.735-0.523c0.144-0.072,0.294-0.142,0.452-0.174  c0.109-0.023,0.219-0.035,0.328-0.048c0.175-0.028,0.351-0.063,0.526-0.098c0.106-0.021,0.212-0.025,0.314-0.011  c0.086-0.027,0.176-0.042,0.267-0.042c0.146,0,0.294,0.037,0.429,0.113c0.252,0.14,0.519,0.257,0.753,0.425  c0.127,0.09,0.263,0.176,0.367,0.291c0.121,0.133,0.228,0.283,0.331,0.429c0.084,0.115,0.16,0.238,0.224,0.367  c0.121,0.238,0.16,0.404,0.189,0.667c0.023,0.207,0.033,0.419,0.037,0.63c0.006,0.222-0.014,0.437-0.051,0.659  c-0.018,0.106-0.048,0.209-0.085,0.31c0.222,0.134,0.445,0.266,0.662,0.408c0.257,0.17,0.509,0.339,0.782,0.485  c0.562,0.302,1.104,0.644,1.657,0.961c0.253,0.146,0.511,0.285,0.766,0.425c0.228,0.125,0.447,0.265,0.669,0.402  c0.185,0.115,0.369,0.236,0.554,0.353c0.119,0.075,0.244,0.133,0.368,0.198c0.209-0.221,0.437-0.423,0.694-0.585  c0.22-0.138,0.466-0.24,0.712-0.318c0.25-0.078,0.493-0.133,0.757-0.154c0.084-0.007,0.168-0.008,0.253-0.01  c0.02-0.044,0.03-0.092,0.054-0.134c0.053-0.09,0.119-0.168,0.174-0.257c0.172-0.281,0.296-0.593,0.443-0.889  c0.285-0.581,0.548-1.178,0.854-1.749c0.312-0.577,0.626-1.154,0.903-1.749c0.266-0.576,0.525-1.153,0.793-1.727  c-0.348-0.256-0.619-0.642-0.748-1.038c-0.072-0.22-0.142-0.448-0.189-0.675c-0.051-0.252-0.033-0.443,0.014-0.694  c0.027-0.154,0.055-0.312,0.101-0.462c0.154-0.505,0.443-1.008,0.79-1.406c0.216-0.248,0.458-0.499,0.727-0.688  c0.353-0.25,0.803-0.353,1.221-0.427c0.081-0.014,0.159-0.023,0.236-0.023c0.139,0,0.272,0.029,0.406,0.107  c0.033,0.019,0.065,0.041,0.095,0.065c0.265,0.028,0.522,0.083,0.761,0.222c0.156,0.09,0.294,0.205,0.435,0.316  c0.179,0.142,0.331,0.296,0.472,0.478c0.101,0.129,0.218,0.263,0.304,0.408c0.092,0.152,0.154,0.32,0.216,0.485  C29.912,7.221,30.017,7.509,29.998,7.819z M6.505,23.8c-0.013-0.068-0.029-0.136-0.05-0.202c-0.081-0.161-0.183-0.314-0.291-0.459  c-0.146-0.173-0.303-0.324-0.477-0.467C5.565,22.582,5.435,22.499,5.3,22.43c-0.026-0.008-0.051-0.015-0.078-0.02  c-0.109-0.025-0.207-0.073-0.292-0.137c-0.118,0.021-0.234,0.048-0.349,0.086c-0.103,0.054-0.198,0.118-0.292,0.186  c-0.061,0.052-0.117,0.107-0.171,0.167C4.021,22.853,3.938,23,3.865,23.153c-0.062,0.159-0.11,0.319-0.141,0.486  c-0.026,0.249-0.036,0.507-0.016,0.757c0.017,0.078,0.039,0.154,0.065,0.229c0.04,0.07,0.086,0.136,0.134,0.201  c0.058,0.068,0.119,0.131,0.184,0.191c0.089,0.058,0.182,0.109,0.278,0.154c0.112,0.036,0.227,0.053,0.343,0.081  c0.102,0.023,0.203,0.05,0.306,0.07c0.115,0.008,0.233,0.007,0.348,0c0.167-0.033,0.337-0.082,0.496-0.14  c0.014-0.008,0.029-0.016,0.043-0.025c0.114-0.097,0.224-0.196,0.324-0.307c0.061-0.1,0.114-0.206,0.164-0.312  c0.05-0.14,0.08-0.282,0.104-0.429C6.507,24.007,6.512,23.904,6.505,23.8z M11.934,12.712c0.013,0.017,0.025,0.034,0.038,0.051  c0.001,0,0.001,0.001,0.002,0.002C11.961,12.747,11.947,12.73,11.934,12.712z M11.974,12.765c0,0-0.001,0-0.001-0.001  c0.014,0.018,0.028,0.036,0.041,0.054C12.001,12.8,11.987,12.782,11.974,12.765z M12.297,13.951  c0.017-0.241,0.002-0.476-0.022-0.716c-0.002-0.008-0.004-0.015-0.006-0.022c-0.065-0.124-0.143-0.241-0.225-0.355  c-0.049-0.056-0.1-0.107-0.154-0.155c-0.198-0.138-0.416-0.252-0.623-0.378c-0.213,0.027-0.43,0.049-0.632,0.113  c-0.111,0.058-0.216,0.126-0.317,0.198c-0.076,0.066-0.148,0.137-0.216,0.211c-0.066,0.093-0.129,0.188-0.182,0.288  c-0.028,0.086-0.049,0.172-0.066,0.26c-0.015,0.173-0.021,0.344-0.006,0.517c0.033,0.207,0.079,0.414,0.149,0.611  c0.032,0.068,0.066,0.133,0.106,0.196c0.116,0.128,0.25,0.244,0.383,0.354c0.031,0.021,0.064,0.04,0.097,0.058  c0.082,0.029,0.165,0.053,0.249,0.072c0.122,0.008,0.246,0.009,0.368,0.001c0.043-0.011,0.085-0.025,0.127-0.04  c0.122-0.054,0.241-0.112,0.35-0.189c0.104-0.083,0.205-0.168,0.295-0.264c0.091-0.146,0.167-0.299,0.238-0.456  C12.245,14.154,12.275,14.054,12.297,13.951z M22.54,19.645c-0.025-0.155-0.057-0.315-0.109-0.462  c-0.055-0.115-0.114-0.23-0.183-0.337c-0.067-0.075-0.14-0.147-0.214-0.214c-0.15-0.101-0.311-0.181-0.471-0.266  c-0.047-0.001-0.093-0.002-0.14-0.001c-0.098,0.025-0.194,0.059-0.288,0.096c-0.163,0.076-0.318,0.165-0.466,0.267  c-0.124,0.105-0.232,0.225-0.335,0.35c-0.078,0.11-0.149,0.225-0.21,0.346c-0.055,0.15-0.097,0.3-0.127,0.457  c-0.011,0.138-0.011,0.276,0.001,0.413c0.012,0.073,0.026,0.146,0.047,0.217c0.015,0.026,0.032,0.052,0.049,0.077  c0.115,0.132,0.239,0.248,0.373,0.359c0.009,0.006,0.019,0.012,0.029,0.018c0.14,0.083,0.316,0.096,0.474,0.113  c0.174,0.02,0.379,0.052,0.552,0.012c0.038-0.009,0.075-0.019,0.113-0.031c0.092-0.047,0.178-0.101,0.262-0.16  c0.141-0.12,0.266-0.247,0.385-0.391c0.074-0.102,0.142-0.207,0.199-0.32c0.019-0.06,0.034-0.121,0.046-0.183  C22.541,19.886,22.548,19.766,22.54,19.645z M28.256,7.823c-0.029-0.121-0.07-0.239-0.114-0.354  c-0.056-0.109-0.121-0.211-0.193-0.31c-0.128-0.155-0.27-0.288-0.425-0.415c-0.015-0.01-0.03-0.02-0.045-0.03  c-0.03-0.007-0.06-0.013-0.09-0.019c-0.041-0.005-0.082-0.009-0.122-0.013c-0.158-0.016-0.299-0.046-0.426-0.117  c-0.044,0.009-0.088,0.02-0.132,0.031c-0.043,0.023-0.085,0.049-0.126,0.076c-0.097,0.088-0.188,0.187-0.271,0.288  c-0.146,0.206-0.279,0.432-0.387,0.659c-0.068,0.179-0.124,0.362-0.163,0.55c-0.001,0.021-0.001,0.042,0,0.064  c0.031,0.168,0.075,0.339,0.131,0.499c0.021,0.041,0.044,0.081,0.069,0.12c0.021,0.022,0.042,0.044,0.064,0.065  c0.008,0.005,0.017,0.01,0.025,0.015c0.153,0.046,0.308,0.073,0.465,0.098c0.211,0.018,0.419,0.012,0.63-0.008  c0.115-0.026,0.229-0.059,0.34-0.099c0.138-0.067,0.271-0.143,0.396-0.23c0.039-0.037,0.076-0.076,0.112-0.117  c0.07-0.097,0.136-0.198,0.193-0.304c0.025-0.083,0.043-0.167,0.057-0.252C28.253,7.954,28.257,7.889,28.256,7.823z" style="fill: #111918;"/>
<metadata><work rdf:about=""><format>image/svg+xml</format><type rdf:resource="http://purl.org/dc/dcmitype/StillImage"/><license rdf:resource="http://creativecommons.org/licenses/by/4.0/"/><attributionname>Shannon E Thomas</attributionname><attributionurl>http://www.toicon.com/icons/sketchy_plot</attributionurl></work></metadata></svg>
